<svg
  width="24"
  height="24"
  viewBox="0 0 24 24"
  fill="none"
  xmlns="http://www.w3.org/2000/svg"
>
  <path
    fill-rule="evenodd"
    clip-rule="evenodd"
    d="M12.8999 3.02698C12.8999 2.52993 12.497 2.12698 11.9999 2.12698C11.5029 2.12698 11.0999 2.52993 11.0999 3.02698V3.67936C7.29908 4.12479 4.34993 7.35648 4.34993 11.277V17.6269H3.99993C3.50288 17.6269 3.09993 18.0299 3.09993 18.5269C3.09993 19.024 3.50288 19.4269 3.99993 19.4269H5.24993H18.7499H19.9999C20.497 19.4269 20.8999 19.024 20.8999 18.5269C20.8999 18.0299 20.497 17.6269 19.9999 17.6269H19.6499V11.277C19.6499 7.35648 16.7008 4.12479 12.8999 3.67936V3.02698ZM17.8499 17.6269V11.277C17.8499 8.04616 15.2308 5.42698 11.9999 5.42698C8.76906 5.42698 6.14993 8.04616 6.14993 11.277V17.6269H17.8499ZM9.59993 21.5269C9.59993 22.024 10.0029 22.4269 10.4999 22.4269H13.4999C13.997 22.4269 14.3999 22.024 14.3999 21.5269C14.3999 21.0299 13.997 20.6269 13.4999 20.6269H10.4999C10.0029 20.6269 9.59993 21.0299 9.59993 21.5269Z"
    fill="currentColor"
  />
</svg>