<svg width="169" height="82" viewBox="0 0 169 82" fill="none" xmlns="http://www.w3.org/2000/svg">
<path d="M91.9276 39.7113V41.6643C91.9276 42.3324 91.4231 42.8463 90.7672 42.8463H88.6481C88.1435 42.6921 87.639 42.6408 87.084 42.6408C87.0335 42.6408 86.9831 42.6408 86.9326 42.6408C86.6299 42.4352 86.4281 42.0755 86.4281 41.6643V39.7113C86.4281 39.0432 86.9831 38.5294 87.639 38.5294H90.8176C91.4231 38.478 91.9276 39.0432 91.9276 39.7113ZM65.2877 19.9765C65.4895 19.3084 65.7418 19 66.1454 19H77.1445C77.5481 19 77.7499 19.2056 78.0022 19.9251L79.0113 24.1393C76.8418 23.7795 74.319 23.5226 71.544 23.4198C68.769 23.5226 66.2463 23.7795 64.1272 24.1393L65.2877 19.9765ZM56.0545 32.4136C56.105 32.208 56.1554 31.951 56.2059 31.694C56.5591 29.7925 57.0132 27.1714 59.2332 26.0922C60.2423 25.5783 64.0263 24.7046 64.0263 24.7046C66.1959 24.2935 68.8195 24.0365 71.5945 23.9337C76.0849 23.9337 82.9467 25.6297 84.0063 26.0922C86.2263 27.1714 86.6804 29.7925 87.0335 31.694C87.084 31.951 87.1344 32.1566 87.1849 32.4136C87.4372 33.5956 87.7399 35.8055 88.0931 37.964H87.639C87.1849 37.964 86.7308 38.1696 86.4281 38.478C86.1254 36.525 85.8226 34.4693 85.6208 33.3901C85.2676 31.6427 85.0658 28.816 82.6945 27.6854C80.4745 26.6061 76.2867 25.938 71.6449 25.7325C67.0031 25.8867 62.8659 26.6061 60.5954 27.6854C58.2745 28.816 58.0223 31.6427 57.6691 33.3901C57.4673 34.4693 57.1645 36.525 56.8618 38.478C56.5591 38.1696 56.105 37.964 55.6509 37.964H55.1464C55.4995 35.8055 55.8023 33.5956 56.0545 32.4136ZM51.2614 39.7113C51.2614 39.0432 51.8164 38.5294 52.4218 38.5294H55.6004C56.2563 38.5294 56.7609 39.0946 56.7609 39.7113V41.6643C56.7609 42.0755 56.5591 42.4352 56.2563 42.6408C56.2059 42.6408 56.1554 42.6408 56.105 42.6408C55.55 42.6408 55.0454 42.7435 54.5409 42.8463H52.4218C51.7659 42.8463 51.2614 42.3324 51.2614 41.6643V39.7113ZM50 49.9386C50 47.112 51.6145 44.6451 53.8345 43.6686C53.8345 43.72 54.3895 43.4631 54.3895 43.4631C54.4904 43.4117 54.5409 43.4116 54.6418 43.4116C54.6418 43.4116 57.0636 43.0005 58.0727 43.5145L59.1322 44.0284C60.9991 45.2104 62.3109 47.4203 62.3109 49.9386V54.8209H53.4814V54.7694C53.33 54.7694 53.1282 54.7694 52.9768 54.7694C52.9768 54.8208 52.9768 54.8208 52.9768 54.8722H50.0505V49.9386H50ZM60.1413 62.5297C60.1413 64.0715 58.9304 65.305 57.4168 65.305H55.9536C54.44 65.305 53.2291 64.0715 53.2291 62.5297V59.1378H60.1413V62.5297ZM64.8841 58.6239H51.7155C50.7568 58.6239 50 57.853 50 56.8765V55.4889H64.8841V58.6239ZM77.8004 59.549C77.8004 59.8573 77.5481 60.1657 77.1949 60.1657H65.9941C65.6409 60.1657 65.3886 59.9087 65.3886 59.549V59.3434H77.7499V59.549H77.8004ZM77.8004 58.6239H65.4391V55.4889H77.8004V58.6239ZM77.8004 54.5639H65.4391V54.3583C65.4391 53.9985 65.6913 53.7416 66.0445 53.7416H77.2454C77.5481 53.7416 77.8508 53.9985 77.8508 54.3583V54.5639H77.8004ZM77.1949 53.2276H65.9941C65.3886 53.2276 64.8841 53.7416 64.8841 54.3583V54.7694H62.8154V49.8872C62.8154 47.4717 61.7054 45.3131 60.0404 43.9769L59.3845 43.4631C62.6136 40.842 66.9022 39.1975 71.5945 39.1975C76.2868 39.1975 80.5754 40.7906 83.8045 43.4631L83.1486 43.9769C81.4836 45.3131 80.3736 47.4717 80.3736 49.8872V54.7694H78.3049V54.3583C78.3049 53.7416 77.8004 53.2276 77.1949 53.2276ZM89.9599 62.5297C89.9599 64.0715 88.749 65.305 87.2354 65.305H85.7722C84.2585 65.305 83.0476 64.0715 83.0476 62.5297V59.1378H89.9599V62.5297ZM93.189 56.8765C93.189 57.853 92.4322 58.6239 91.4735 58.6239H78.3049V55.4889H93.189V56.8765ZM93.189 54.8209C93.189 54.8209 89.7581 54.7695 89.7581 54.8209H80.8781V49.9386C80.8781 47.3689 82.1395 45.159 84.0567 44.0284L85.1163 43.5145C85.6208 43.3603 86.1758 43.2061 86.7308 43.2061C86.9831 43.3089 87.2354 43.4116 87.4876 43.4116H88.4967C88.5976 43.4116 88.6481 43.4631 88.749 43.4631C88.749 43.4631 89.304 43.72 89.304 43.6686C91.5744 44.6965 93.1385 47.112 93.1385 49.9386V54.8209H93.189Z" fill="#FFC000"/>
<path d="M64.484 47.5744H78.7626C79.1158 47.5744 79.4185 47.2661 79.4185 46.9577C79.4185 46.598 79.1158 46.2896 78.7626 46.2896H64.484C64.1309 46.2896 63.8281 46.598 63.8281 46.9577C63.8281 47.3175 64.1309 47.5744 64.484 47.5744Z" fill="#17191F"/>
<path d="M64.484 49.6814H78.7626C79.1158 49.6814 79.4185 49.373 79.4185 49.0133C79.4185 48.6535 79.1158 48.3452 78.7626 48.3452H64.484C64.1309 48.3452 63.8281 48.6535 63.8281 49.0133C63.8281 49.4244 64.1309 49.6814 64.484 49.6814Z" fill="#17191F"/>
<path d="M53.7353 52.4054C54.3408 52.8165 55.0976 53.0735 55.8544 53.0735C57.923 53.0735 59.588 51.3775 59.588 49.2704C59.588 47.6258 58.5285 46.1868 57.0653 45.6729C56.8635 45.5701 56.5103 45.5187 56.5103 45.5187C56.258 45.4673 56.0562 45.4673 55.804 45.4673C53.7353 45.4673 52.0703 47.1633 52.0703 49.2704C52.0703 50.3497 52.5244 51.3775 53.2308 52.0456C53.2812 52.0456 53.483 52.2512 53.7353 52.4054Z" fill="#17191F"/>
<path d="M87.0383 45.4673C86.8869 45.4673 86.7356 45.4673 86.5842 45.5187L86.0292 45.6215C84.4651 46.084 83.3047 47.5744 83.3047 49.2704C83.3047 51.3775 84.9697 53.0735 87.0383 53.0735C87.9465 53.0735 88.7538 52.7651 89.4097 52.1998L89.8638 51.7887C90.4692 51.1206 90.8224 50.2469 90.8224 49.219C90.8224 47.1633 89.1574 45.4673 87.0383 45.4673Z" fill="#17191F"/>
<path d="M76.4905 20.0791H75.6328V22.9571H76.4905V20.0791Z" fill="#17191F"/>
<path d="M69.3268 20.0791H66.7031V20.7986H67.6113V22.9571H68.469V20.7986H69.3268V20.0791Z" fill="#17191F"/>
<path d="M72.2574 22.9571L71.1979 20.0791H70.2392L69.1797 22.9571H70.0879L70.2392 22.4946H71.2483L71.3997 22.9571H72.2574ZM70.3906 21.8265L70.6933 20.7986L70.996 21.8265H70.3906Z" fill="#17191F"/>
<path d="M73.2086 22.9571L73.7636 22.032L74.3186 22.9571H75.3277L74.3691 21.4667L75.2268 20.0791H74.2682L73.8141 20.9528L73.3096 20.0791H72.3509L73.2086 21.4667L72.25 22.9571H73.2086Z" fill="#17191F"/>
<path d="M79.3639 51.1207C79.3639 50.7609 79.0611 50.4526 78.7079 50.4526H64.4293C64.0762 50.4526 63.7734 50.7609 63.7734 51.1207C63.7734 51.4804 64.0762 51.7888 64.4293 51.7888H78.7079C79.0611 51.7888 79.3639 51.4804 79.3639 51.1207Z" fill="#17191F"/>
<path d="M11.466 65.638C8.652 65.638 6.657 64.84 5.481 63.244C4.347 61.606 3.78 59.149 3.78 55.873C3.78 53.773 4.116 50.623 4.788 46.423C5.502 42.181 6.489 36.574 7.749 29.602L4.41 22.861C6.384 21.601 8.484 20.53 10.71 19.648C12.936 18.724 15.162 18.262 17.388 18.262C19.362 18.262 20.664 18.85 21.294 20.026C21.924 21.202 22.239 22.588 22.239 24.184C22.239 24.898 22.092 26.074 21.798 27.712C21.546 29.308 21.21 31.156 20.79 33.256C20.412 35.356 20.013 37.498 19.593 39.682L22.554 37.225C25.074 35.125 27.237 32.962 29.043 30.736C30.849 28.51 31.752 26.305 31.752 24.121C31.752 23.029 31.584 22.042 31.248 21.16C34.356 19.27 37.296 18.325 40.068 18.325C42.294 18.325 43.869 18.913 44.793 20.089C45.759 21.223 46.242 22.735 46.242 24.625C46.242 26.683 45.276 28.93 43.344 31.366C41.454 33.802 38.241 36.322 33.705 38.926C34.419 41.194 35.217 43.525 36.099 45.919C37.023 48.271 38.031 50.518 39.123 52.66C40.215 54.802 41.37 56.713 42.588 58.393C43.806 60.031 45.066 61.27 46.368 62.11C45.78 62.74 44.94 63.328 43.848 63.874C42.798 64.378 41.685 64.777 40.509 65.071C39.375 65.407 38.325 65.575 37.359 65.575C35.553 65.575 33.957 65.281 32.571 64.693C31.185 64.105 29.946 63.076 28.854 61.606C27.804 60.094 26.796 57.973 25.83 55.243L22.176 44.974L18.27 47.053C18.018 48.523 17.808 49.846 17.64 51.022C17.472 52.156 17.388 53.038 17.388 53.668C17.388 55.81 17.535 57.616 17.829 59.086C18.165 60.556 18.648 61.795 19.278 62.803C16.758 64.693 14.154 65.638 11.466 65.638Z" fill="white"/>
<path d="M112.829 65.575C110.141 65.575 107.726 65.134 105.584 64.252C103.484 63.37 101.825 62.068 100.607 60.346C99.389 58.582 98.78 56.377 98.78 53.731C98.78 52.135 98.969 50.056 99.347 47.494C99.767 44.932 100.271 42.118 100.859 39.052C101.447 35.944 102.014 32.794 102.56 29.602L99.221 22.861C101.573 21.517 103.82 20.425 105.962 19.585C108.146 18.745 110.435 18.325 112.829 18.325C113.837 18.325 114.677 18.493 115.349 18.829C116.021 19.165 116.567 19.627 116.987 20.215C118.793 19.585 120.494 19.123 122.09 18.829C123.686 18.535 125.198 18.388 126.626 18.388C130.448 18.388 133.64 19.249 136.202 20.971C138.764 22.693 140.675 24.961 141.935 27.775C143.237 30.589 143.888 33.655 143.888 36.973C143.888 39.619 143.468 42.286 142.628 44.974C141.83 47.662 140.591 50.245 138.911 52.723C137.273 55.201 135.215 57.406 132.737 59.338C130.259 61.27 127.361 62.803 124.043 63.937C120.725 65.029 116.987 65.575 112.829 65.575ZM115.097 56.377C118.289 56.377 120.956 55.579 123.098 53.983C125.282 52.387 126.92 50.287 128.012 47.683C129.104 45.079 129.65 42.265 129.65 39.241C129.65 35.461 128.789 32.395 127.067 30.043C125.345 27.649 122.783 26.452 119.381 26.452C119.003 26.452 118.604 26.473 118.184 26.515C117.764 26.557 117.323 26.62 116.861 26.704C116.609 28.384 116.273 30.484 115.853 33.004C115.475 35.524 115.034 38.212 114.53 41.068C114.068 43.882 113.606 46.633 113.144 49.321C112.724 51.967 112.388 54.235 112.136 56.125C112.64 56.209 113.144 56.272 113.648 56.314C114.152 56.356 114.635 56.377 115.097 56.377ZM155.692 65.638C152.878 65.638 150.883 64.84 149.707 63.244C148.573 61.606 148.006 59.149 148.006 55.873C148.006 53.773 148.342 50.623 149.014 46.423C149.728 42.181 150.715 36.574 151.975 29.602L148.636 22.861C150.61 21.601 152.71 20.53 154.936 19.648C157.162 18.724 159.388 18.262 161.614 18.262C163.588 18.262 164.89 18.85 165.52 20.026C166.15 21.202 166.465 22.588 166.465 24.184C166.465 24.856 166.339 25.948 166.087 27.46C165.877 28.93 165.583 30.652 165.205 32.626C164.827 34.558 164.428 36.595 164.008 38.737C163.63 40.837 163.252 42.895 162.874 44.911C162.496 46.885 162.181 48.649 161.929 50.203C161.719 51.715 161.614 52.87 161.614 53.668C161.614 55.81 161.761 57.616 162.055 59.086C162.391 60.556 162.874 61.795 163.504 62.803C160.984 64.693 158.38 65.638 155.692 65.638Z" fill="white"/>
</svg>
