<svg width="1524" height="370" viewBox="0 0 1524 370" fill="none" xmlns="http://www.w3.org/2000/svg">
<path d="M370.449 122.026V92.1818H578.812V122.026H491.452V370H457.81V122.026H370.449ZM630.734 370V92.1818H798.401V122.026H664.376V215.898H789.72V245.741H664.376V340.156H800.572V370H630.734ZM859.039 370V92.1818H952.911C974.706 92.1818 992.521 96.1158 1006.36 103.984C1020.29 111.761 1030.59 122.297 1037.29 135.591C1043.98 148.885 1047.33 163.716 1047.33 180.085C1047.33 196.454 1043.98 211.331 1037.29 224.715C1030.69 238.1 1020.47 248.771 1006.63 256.729C992.793 264.597 975.067 268.531 953.453 268.531H886.169V238.688H952.368C967.29 238.688 979.273 236.11 988.316 230.955C997.36 225.8 1003.92 218.837 1007.99 210.065C1012.15 201.202 1014.23 191.209 1014.23 180.085C1014.23 168.962 1012.15 159.014 1007.99 150.241C1003.92 141.469 997.315 134.596 988.181 129.622C979.047 124.558 966.928 122.026 951.825 122.026H892.681V370H859.039ZM1084.56 370H1049.29L1151.3 92.1818H1186.03L1288.04 370H1252.77L1169.75 136.134H1167.58L1084.56 370ZM1097.59 261.477H1239.75V291.321H1097.59V261.477ZM1279.09 92.1818H1317.61L1394.67 221.866H1397.92L1474.97 92.1818H1513.5L1413.11 255.509V370H1379.47V255.509L1279.09 92.1818Z" fill="white"/>
<rect y="86" width="300" height="40" rx="20" fill="#26609F"/>
<rect x="76" y="206" width="224" height="40" rx="20" fill="#9BB4D3"/>
<rect x="174" y="325" width="126" height="40" rx="20" fill="#CFD6DC"/>
</svg>
